inDegrees=yes
name=ik_S50_A03_T01
DataType=double
version=3
OpenSimVersion=4.3-2021-08-27-4bc7ad9
endheader
time	pelvis_tilt	pelvis_list	pelvis_rotation	pelvis_tx	pelvis_ty	pelvis_tz	hip_flexion_r	hip_adduction_r	hip_rotation_r	knee_angle_r	knee_angle_r_beta	ankle_angle_r	subtalar_angle_r	mtp_angle_r	hip_flexion_l	hip_adduction_l	hip_rotation_l	knee_angle_l	knee_angle_l_beta	ankle_angle_l	subtalar_angle_l	mtp_angle_l	lumbar_extension	lumbar_bending	lumbar_rotation	arm_flex_r	arm_add_r	arm_rot_r	elbow_flex_r	pro_sup_r	wrist_flex_r	wrist_dev_r	arm_flex_l	arm_add_l	arm_rot_l	elbow_flex_l	pro_sup_l	wrist_flex_l	wrist_dev_l
0	0	0	0	0	0.9399999999999999	0	0	0	0	0	0	0	0	0	0	0	0	0	0	0	0	0	0	0	0	0	0	0	0	89.99999999963507	0	0	0	0	0	0	89.99999999869995	0	0
0.02	1.470432335332753	-2.986041284770123	-81.05021410403677	0	0.9399999999999999	0	-2.350089887107504	-2.461177687885327	-5.454562361839896	-0.4591916155827094	-0.008014405589470379	0	0	0	-2.031757186005965	-2.107157837599138	-6.475787810381695	3.13889573273778	0.05478406541307423	0	0	0	0	0	0	1.770849444516983	-1.770849444516983	0.3152545961978238	8.771112888415397	89.68474542195951	0	0	1.770849444516983	-1.770849444516983	0.3152545961978238	8.771112888415397	89.68474542108349	0	0
0.04	1.489086657367247	-3.021093812303045	-81.04171301262512	0	0.9399999999999999	0	-2.325407493674895	-2.472693383029395	-5.589634746501861	-0.3844667288702043	-0.006710210283157404	0	0	0	-2.00789274947935	-2.09362034438775	-6.525848892636039	3.216893928682904	0.05614539074293233	0	0	0	0	0	0	2.594251659109281	-2.594251659109281	0.4667302086485612	11.40525666592085	89.53326981840904	0	0	2.594251659109281	-2.594251659109281	0.4667302086485612	11.40525666592085	89.5332698175614	0	0
0.06	1.493169874688337	-3.068876635412356	-81.06042972021437	0	0.9399999999999999	0	-2.297581247408738	-2.488440449925009	-5.691354112285356	-0.378652114718689	-0.006608726121480405	0	0	0	-2.017038235007097	-2.096887327304392	-6.613735919817583	3.220297803256797	0.05620479956157167	0	0	0	0	0	0	2.595427048464352	-2.595427048464352	0.4669545845532686	11.41368569118122	89.53304544251769	0	0	2.595427048464352	-2.595427048464352	0.4669545845532686	11.41368569118122	89.53304544167008	0	0
0.08	1.494903956544553	-3.153974191850013	-81.09824278668331	0	0.9399999999999999	0	-2.368721765736348	-2.483701753234039	-5.66261971590137	-0.3256038706339557	-0.005682859599800204	0	0	0	-2.038618481231354	-2.10207570823531	-6.667509754155727	3.288437878326851	0.05739406822410023	0	0	0	0	0	0	2.651621168642753	-2.651621168642753	0.4772904516145267	11.59437572218279	89.52270957606407	0	0	2.651621168642753	-2.651621168642753	0.4772904516145267	11.59437572218279	89.52270957521846	0	0
0.1	1.481840301460204	-3.191524242361765	-81.13227209605517	0	0.9399999999999999	0	-2.347470045006713	-2.487894316870942	-5.730791451916829	-0.3149189588481477	-0.005496372708852707	0	0	0	-2.016284064773296	-2.099435922910031	-6.677519826543817	3.289844223635361	0.05741861358015371	0	0	0	0	0	0	2.652906328910933	-2.652906328910933	0.4775388533923982	11.60407450731899	89.522461174301	0	0	2.652906328910933	-2.652906328910933	0.4775388533923982	11.60407450731899	89.52246117345547	0	0
0.12	1.477314269828661	-3.240994933477699	-81.16298954472677	0	0.9399999999999999	0	-2.331174372340974	-2.487794512262073	-5.737377561156204	-0.31075858357308	-0.005423760462184211	0	0	0	-1.978955424395225	-2.094907924071912	-6.668896695288896	3.292735849039043	0.05746908196418227	0	0	0	0	0	0	2.653298041008505	-2.653298041008505	0.4776125052980562	11.606674299808	89.5223875223997	0	0	2.653298041008505	-2.653298041008505	0.4776125052980562	11.606674299808	89.52238752155421	0	0
0.14	1.447364375209359	-3.158424492553324	-81.16661314857605	0	0.9399999999999999	0	-2.149867470348448	-2.487573377807584	-5.757085434233653	-0.1577981762916237	-0.00275409772993129	0	0	0	-1.798024324740982	-2.115361884039398	-6.699500671145258	3.417510613426112	0.05964681242613679	0	0	0	0	0	0	2.802352239087094	-2.802352239087094	0.5059498125096689	12.34373446416753	89.49405021686945	0	0	2.802352239087094	-2.802352239087094	0.5059498125096689	12.34373446416753	89.49405021602925	0	0
0.16	1.416533447341303	-3.110758486626094	-81.20414094283092	0	0.9399999999999999	0	-2.062224533398375	-2.474026845199411	-5.726730020330563	-0.2053126311027391	-0.003583381408675313	0	0	0	-1.691267179366037	-2.161907443599527	-6.787639065732181	3.447328030962087	0.06016722453658144	0	0	0	0	0	0	3.288393601871142	-3.288393601871142	0.5955948771708278	14.03232169510893	89.40440515748271	0	0	3.288393601871142	-3.288393601871142	0.5955948771708278	14.03232169510893	89.40440515665929	0	0
0.18	1.392837609249983	-3.069819110514032	-81.22906834165113	0	0.9399999999999999	0	-1.987880924298861	-2.495407759849319	-5.75843523447339	-0.1845974015859565	-0.003221832448301144	0	0	0	-1.595152661999606	-2.170123632037277	-6.910749959370089	3.49768040770651	0.06104603929697625	0	0	0	0	0	0	3.803971529329364	-3.803971529329363	0.6896128072653205	15.71007592518129	89.31038723290438	0	0	3.803971529329364	-3.803971529329363	0.6896128072653205	15.71007592518129	89.31038723209855	0	0
0.2	1.363798415415185	-3.020658464832806	-81.24831291872646	0	0.9399999999999999	0	-1.934262796880911	-2.5311153894732	-5.846770738049571	-0.1781031117174986	-0.003108485707517644	0	0	0	-1.491784246165695	-2.198585769396041	-6.988132672069502	3.528638451695871	0.06158635909456784	0	0	0	0	0	0	3.958100620120531	-3.958100620120531	0.7177260306097524	16.22817513785813	89.28227401120992	0	0	3.958100620120531	-3.958100620120531	0.7177260306097524	16.22817513785813	89.2822740104094	0	0
0.22	1.365216197632822	-2.988577663092765	-81.24374860108726	0	0.9399999999999999	0	-1.893083164378684	-2.580893172082131	-5.981882332869827	-0.2194413404914704	-0.003829973906566109	0	0	0	-1.434462046744974	-2.189957866326238	-7.036510251719797	3.533910816874726	0.06167837922630635	0	0	0	0	0	0	4.118597878599673	-4.118597878599672	0.746701890842151	16.70689125466931	89.25329815267351	0	0	4.118597878599673	-4.118597878599672	0.746701890842151	16.70689125466931	89.25329815187843	0	0
0.24	1.342546750774546	-2.894762800240102	-81.25471304434271	0	0.9399999999999999	0	-1.777339379386679	-2.605654820136852	-6.049174899173088	-0.2504495846704312	-0.004371169862751341	0	0	0	-1.340168850223936	-2.189804498494275	-7.03228958187107	3.480059522643776	0.06073849683551606	0	0	0	0	0	0	4.288378844452622	-4.288378844452621	0.7773175133612019	17.22591629527836	89.22268253194605	0	0	4.288378844452622	-4.288378844452621	0.7773175133612019	17.22591629527836	89.22268253115669	0	0
0.26	1.313149563488518	-2.827366460829158	-81.25746697744709	0	0.9399999999999999	0	-1.703174996079853	-2.619706202481051	-6.103623767434137	-0.2506725159882834	-0.004375060748253673	0	0	0	-1.228461753133297	-2.214067191773565	-7.068687892153558	3.550077100785996	0.06196053410837021	0	0	0	0	0	0	4.414635911645432	-4.41463591164543	0.8001383828191737	17.63076241793075	89.19986166382448	0	0	4.414635911645432	-4.41463591164543	0.8001383828191737	17.63076241793075	89.19986166303946	0	0
0.28	1.263711821531756	-2.743093286290903	-81.30306764764619	0	0.9399999999999999	0	-1.612227201696545	-2.582208719196696	-6.068121635079217	-0.3004171565622695	-0.005243268511490893	0	0	0	-1.101032514821617	-2.24665869752029	-7.11143935711759	3.524471334360848	0.06151362917675475	0	0	0	0	0	0	4.577957509888705	-4.577957509888704	0.8294388260641646	18.13085177714033	89.17056122229218	0	0	4.577957509888705	-4.577957509888704	0.8294388260641646	18.13085177714033	89.17056122151264	0	0
